<svg xmlns="http://www.w3.org/2000/svg" enable-background="new 0 0 24 24" height="24px" viewBox="0 0 24 24" width="24px" fill="#000000"><g><rect fill="none" height="24" width="24"/></g><g><g><g><path d="M20.63,8.54l-0.95-0.32C19.28,8.09,19,7.71,19,7.28V3c0-0.55-0.45-1-1-1h-3c-0.55,0-1,0.45-1,1v4.28 c0,0.43-0.28,0.81-0.68,0.95l-0.95,0.32C11.55,8.82,11,9.58,11,10.44V20c0,1.1,0.9,2,2,2h7c1.1,0,2-0.9,2-2v-9.56 C22,9.58,21.45,8.82,20.63,8.54z M16,4h1v1h-1V4z M13,10.44l0.95-0.32C15.18,9.72,16,8.57,16,7.28V7h1v0.28 c0,1.29,0.82,2.44,2.05,2.85L20,10.44V12h-7V10.44z M20,20h-7v-2h7V20z"/></g></g></g></svg>